HIERARCHY
ROOT Hips
{
	OFFSET 55.310501 45.591206 43.872097
	CHANNELS 6 Xposition Yposition Zposition Zrotation Xrotation Yrotation
	JOINT Chest
	{
		OFFSET -0.153500 1.163101 7.852402
		CHANNELS 6 Xposition Yposition Zposition Zrotation Xrotation Yrotation
		JOINT Chest2
		{
			OFFSET 0.000000 0.000000 3.343300
			CHANNELS 6 Xposition Yposition Zposition Zrotation Xrotation Yrotation
			JOINT Neck
			{
				OFFSET 0.000000 0.000000 7.785500
				CHANNELS 6 Xposition Yposition Zposition Zrotation Xrotation Yrotation
				JOINT Head
				{
					OFFSET 0.000000 0.000000 2.173901
					CHANNELS 6 Xposition Yposition Zposition Zrotation Xrotation Yrotation
					End Site
					{
						OFFSET 0.000000 0.000000 10.528198
					}
				}
			}
			JOINT LeftCollar
			{
				OFFSET 2.676300 -1.652401 4.938301
				CHANNELS 6 Xposition Yposition Zposition Zrotation Xrotation Yrotation
				JOINT LeftShoulder
				{
					OFFSET 4.299000 0.000000 0.000000
					CHANNELS 6 Xposition Yposition Zposition Zrotation Xrotation Yrotation
					JOINT LeftElbow
					{
						OFFSET 0.000000 0.000000 -10.245102
						CHANNELS 6 Xposition Yposition Zposition Zrotation Xrotation Yrotation
						JOINT LeftWrist
						{
							OFFSET 0.000000 0.000000 -12.703300
							CHANNELS 6 Xposition Yposition Zposition Zrotation Xrotation Yrotation
							End Site
							{
								OFFSET 0.000000 0.000000 -2.173901
							}
						}
					}
				}
			}
			JOINT RightCollar
			{
				OFFSET -2.534599 -1.686401 5.195000
				CHANNELS 6 Xposition Yposition Zposition Zrotation Xrotation Yrotation
				JOINT RightShoulder
				{
					OFFSET -4.144100 0.000000 0.000000
					CHANNELS 6 Xposition Yposition Zposition Zrotation Xrotation Yrotation
					JOINT RightElbow
					{
						OFFSET 0.000000 0.000000 -10.116501
						CHANNELS 6 Xposition Yposition Zposition Zrotation Xrotation Yrotation
						JOINT RightWrist
						{
							OFFSET 0.000000 0.000000 -12.937801
							CHANNELS 6 Xposition Yposition Zposition Zrotation Xrotation Yrotation
							End Site
							{
								OFFSET 0.000000 0.000000 -2.173901
							}
						}
					}
				}
			}
		}
	}
	JOINT LeftHip
	{
		OFFSET 2.175598 0.064499 -2.662899
		CHANNELS 6 Xposition Yposition Zposition Zrotation Xrotation Yrotation
		JOINT LeftKnee
		{
			OFFSET 0.000000 -0.000004 -18.585800
			CHANNELS 6 Xposition Yposition Zposition Zrotation Xrotation Yrotation
			JOINT LeftAnkle
			{
				OFFSET 0.000000 0.000000 -18.979500
				CHANNELS 6 Xposition Yposition Zposition Zrotation Xrotation Yrotation
				End Site
				{
					OFFSET 0.000000 -9.264000 0.000000
				}
			}
		}
	}
	JOINT RightHip
	{
		OFFSET -2.092400 -0.058102 -2.581200
		CHANNELS 6 Xposition Yposition Zposition Zrotation Xrotation Yrotation
		JOINT RightKnee
		{
			OFFSET 0.000000 -0.000004 -18.665001
			CHANNELS 6 Xposition Yposition Zposition Zrotation Xrotation Yrotation
			JOINT RightAnkle
			{
				OFFSET 0.000000 0.000000 -18.566601
				CHANNELS 6 Xposition Yposition Zposition Zrotation Xrotation Yrotation
				End Site
				{
					OFFSET 0.000000 -8.497601 0.000000
				}
			}
		}
	}
}
MOTION
Frames: 6
Frame Time: 0.041667
36.379601 67.861099 41.521694 648.524385 -2.197160 2.889633 -0.153501 1.163105 7.852407 -10.143134 15.113627 2.693896 0.000006 0.000006 3.343298 0.480553 -4.622321 0.017596 0.000003 -0.000000 7.785503 8.734704 24.780669 -4.066868 -0.000007 0.000001 2.173912 1.830430 3.010280 0.994023 2.676291 -1.652400 4.938298 -4.607774 4.696390 -5.400986 4.298998 -0.000002 -0.000003 -47.961844 -4.713795 -54.863549 -0.000009 0.000002 -10.245089 -12.501358 693.395067 5.856064 0.000001 -0.000006 -12.703306 736.031458 -78.383128 256.865793 -2.534607 -1.686399 5.195001 6.543572 5.509485 0.033899 -4.144102 -0.000003 0.000008 29.861997 2.606408 72.648884 0.000000 0.000006 -10.116499 -8.873981 -18.250370 -15.504794 0.000001 -0.000003 -12.937799 -279.883831 -381.965898 -24.297261 2.175594 0.064493 -2.662887 -317.933257 -33.372704 12.361363 -0.000006 0.000001 -18.585800 122.045249 -233.472286 -151.926971 -0.000004 -0.000007 -18.979502 363.654872 8.752844 -12.956680 -2.092390 -0.058105 -2.581194 292.483973 -34.327376 -30.594231 -0.000010 -0.000006 -18.665009 -1050.437086 51.005978 2.886137 0.000014 0.000001 -18.566607 743.522099 30.358541 9.800925
35.806595 67.640198 41.658394 647.327572 -3.179366 2.907547 -0.153492 1.163109 7.852402 -10.769557 15.225906 2.879757 0.000003 0.000007 3.343301 0.495418 -4.835598 0.021136 -0.000013 0.000003 7.785512 10.529382 25.559145 -4.196974 -0.000003 0.000009 2.173902 2.163019 3.319556 1.572553 2.676282 -1.652392 4.938306 -4.613297 5.113774 -5.971476 4.299004 0.000006 -0.000010 -46.068912 -2.116870 -57.093258 -0.000008 0.000001 -10.245110 -2.416868 697.850427 9.461458 0.000000 0.000003 -12.703299 818.016896 -55.247880 170.133428 -2.534610 -1.686395 5.195009 6.320809 5.695995 0.228750 -4.144107 -0.000001 0.000008 30.558403 0.989124 74.847631 -0.000001 -0.000005 -10.116499 -12.739661 -18.880402 -17.876728 -0.000006 -0.000014 -12.937796 -278.230706 -383.144570 -25.151721 2.175606 0.064503 -2.662894 -319.783419 -32.207224 9.517601 0.000003 -0.000002 -18.585812 122.946916 -233.061737 -151.233666 -0.000010 -0.000007 -18.979500 364.269233 8.307480 -12.753573 -2.092389 -0.058096 -2.581202 296.111732 -33.720145 -28.987125 0.000000 -0.000008 -18.665007 -1060.992078 45.509605 7.370916 0.000011 -0.000002 -18.566605 752.845525 32.526409 6.584220
35.237995 67.457695 41.852196 646.847765 -4.108404 2.854606 -0.153492 1.163100 7.852407 -11.683302 15.314240 2.994394 -0.000001 0.000004 3.343301 0.521063 -5.043186 0.024787 0.000009 0.000003 7.785509 11.926260 26.416670 -4.183578 -0.000004 -0.000003 2.173900 2.436461 3.672946 2.033615 2.676297 -1.652387 4.938305 -4.593499 5.504839 -6.643551 4.299007 -0.000006 -0.000009 -44.167265 0.799939 -59.066247 -0.000007 0.000006 -10.245096 -10.496546 699.026203 6.414863 0.000002 -0.000015 -12.703302 741.817174 -76.652741 262.384695 -2.534595 -1.686399 5.195009 6.054372 5.853223 0.395436 -4.144094 -0.000001 0.000009 31.041799 -0.457499 77.097925 0.000005 0.000005 -10.116488 -15.305843 -19.589657 -20.017249 0.000000 -0.000003 -12.937805 -277.692242 -384.315046 -25.588576 2.175600 0.064493 -2.662896 -322.590190 -30.859208 6.655421 -0.000002 -0.000007 -18.585796 124.436566 -232.503710 -150.842419 -0.000006 0.000001 -18.979502 364.645604 8.488025 -12.386329 -2.092399 -0.058100 -2.581194 298.913503 -33.013497 -27.444713 -0.000002 -0.000003 -18.665010 -1067.020895 41.499820 8.798338 0.000010 -0.000001 -18.566601 759.703800 34.347556 2.688086
34.679695 67.314598 42.099991 646.658378 -5.002081 2.748209 -0.153502 1.163097 7.852403 -12.368755 15.442163 2.943939 -0.000008 -0.000000 3.343307 0.534846 -5.260021 0.076122 -0.000006 -0.000003 7.785498 12.898230 27.339473 -4.022283 -0.000005 0.000007 2.173903 2.641353 4.004732 2.351634 2.676288 -1.652403 4.938298 -4.546888 5.830233 -7.440922 4.299004 -0.000004 0.000003 -43.202736 5.185512 -60.721809 -0.000006 -0.000000 -10.245101 -0.239935 702.802095 8.900916 0.000002 -0.000002 -12.703305 818.914328 -53.693159 165.994647 -2.534606 -1.686407 5.194997 5.723068 5.957466 0.875558 -4.144095 0.000009 0.000005 31.391276 -1.051248 79.069241 -0.000010 0.000000 -10.116493 -18.166275 -20.281456 -22.085640 -0.000007 -0.000009 -12.937796 -278.849959 -385.311216 -26.429873 2.175588 0.064486 -2.662898 -325.249893 -29.513073 4.205496 0.000001 0.000000 -18.585796 125.600130 -232.042618 -150.355632 -0.000004 -0.000006 -18.979504 364.818927 9.415349 -11.836403 -2.092407 -0.058105 -2.581196 301.552333 -32.278552 -25.922610 0.000005 -0.000004 -18.665005 -1070.533470 39.058686 9.127187 -0.000002 -0.000003 -18.566603 763.517013 35.748483 -0.251975
34.136105 67.206604 42.397591 646.774108 -5.826288 2.554680 -0.153501 1.163108 7.852402 -12.719475 15.437889 2.845440 0.000003 -0.000002 3.343297 0.569315 -5.393057 0.031208 0.000007 0.000008 7.785490 13.238882 28.376677 -3.631635 0.000001 -0.000005 2.173899 2.751883 4.268637 2.537595 2.676301 -1.652387 4.938300 -4.597331 6.204301 -8.123408 4.298996 0.000011 0.000000 -40.201421 6.268252 -62.345181 -0.000004 0.000009 -10.245100 -10.183111 703.249719 6.569019 -0.000003 -0.000002 -12.703303 748.613759 -75.858103 272.474168 -2.534579 -1.686396 5.195000 4.507740 5.743541 1.276221 -4.144104 0.000006 0.000004 32.110915 -0.780617 81.029601 0.000005 0.000003 -10.116503 -20.678242 -21.051814 -23.984491 -0.000008 0.000005 -12.937803 -280.591766 -386.300227 -27.287181 2.175603 0.064491 -2.662900 -327.070712 -28.477762 2.596674 0.000003 0.000000 -18.585804 125.738797 -231.965764 -149.496927 -0.000010 0.000001 -18.979500 363.950346 9.958642 -5.435809 -2.092395 -0.058105 -2.581190 303.990683 -31.587712 -24.408830 0.000006 -0.000011 -18.665009 -1072.180693 38.073797 9.060948 0.000004 0.000000 -18.566605 765.010038 36.722799 -1.934529
33.613098 67.128891 42.734398 647.194739 -6.527918 2.285511 -0.153493 1.163109 7.852408 -12.689133 15.387844 2.573978 0.000003 0.000003 3.343303 0.594935 -5.581622 0.027312 0.000006 0.000011 7.785506 12.945478 29.484550 -3.068772 -0.000006 0.000014 2.173903 2.786268 4.510034 2.556487 2.676306 -1.652395 4.938292 -4.047479 6.266625 -8.464985 4.298998 0.000000 -0.000008 -39.142424 9.240353 -64.166875 -0.000010 0.000013 -10.245101 -2.636117 706.080095 8.440803 -0.000002 0.000002 -12.703303 821.368224 -53.441435 159.768015 -2.534584 -1.686400 5.195000 4.267979 5.878603 1.764289 -4.144104 0.000003 0.000003 31.223554 -0.272572 82.940005 -0.000004 0.000003 -10.116489 -23.046561 -22.091033 -25.731030 -0.000014 -0.000003 -12.937796 -282.988944 -387.229515 -28.305846 2.175602 0.064499 -2.662894 -327.700892 -28.085273 1.999943 0.000006 -0.000006 -18.585796 124.503284 -232.486689 -148.111983 -0.000007 -0.000007 -18.979502 363.395680 13.019387 -4.179502 -2.092391 -0.058102 -2.581190 306.178338 -30.984573 -23.046706 0.000012 -0.000010 -18.665010 -1072.149657 38.492180 8.824923 -0.000000 -0.000004 -18.566607 764.340898 37.356220 -2.300697
